<svg width="31" height="30" viewBox="0 0 31 30" fill="none" xmlns="http://www.w3.org/2000/svg">
<path d="M19.7929 15.6116L19.3368 14.8579C19.0416 15.0388 18.8795 15.3771 18.9228 15.7221C18.9659 16.0669 19.2065 16.3542 19.5372 16.4557L19.7929 15.6116ZM11.5948 15.6116L11.8506 16.4557C12.1812 16.3542 12.4218 16.0669 12.4651 15.7221C12.5083 15.3771 12.3462 15.0388 12.0509 14.8579L11.5948 15.6116ZM22.7113 8.82353C22.7113 11.3788 21.362 13.6179 19.3368 14.8579L20.2491 16.3654C22.7753 14.8184 24.4656 12.0199 24.4656 8.82353H22.7113ZM15.6939 1.76471C19.5694 1.76471 22.7113 4.92505 22.7113 8.82353H24.4656C24.4656 3.95044 20.5383 0 15.6939 0V1.76471ZM8.67656 8.82353C8.67656 4.92505 11.8183 1.76471 15.6939 1.76471V0C10.8494 0 6.92223 3.95044 6.92223 8.82353H8.67656ZM12.0509 14.8579C10.0258 13.6179 8.67656 11.3788 8.67656 8.82353H6.92223C6.92223 12.0199 8.61245 14.8184 11.1387 16.3654L12.0509 14.8579ZM11.339 14.7676C5.80098 16.4663 1.63047 21.3184 0.896949 27.2474L2.63784 27.4654C3.28449 22.2385 6.96407 17.9545 11.8506 16.4557L11.339 14.7676ZM0.896949 27.2474C0.703078 28.8145 1.9936 30 3.41357 30V28.2353C2.89578 28.2353 2.5924 27.8328 2.63784 27.4654L0.896949 27.2474ZM3.41357 30H27.9742V28.2353H3.41357V30ZM27.9742 30C29.3942 30 30.6847 28.8145 30.4908 27.2474L28.7498 27.4654C28.7953 27.8328 28.4919 28.2353 27.9742 28.2353V30ZM30.4908 27.2474C29.7573 21.3184 25.5868 16.4663 20.0487 14.7676L19.5372 16.4557C24.4237 17.9545 28.1032 22.2385 28.7498 27.4654L30.4908 27.2474Z" fill="black"/>
</svg>
