<svg width="18" height="18" viewBox="0 0 18 18" fill="none" xmlns="http://www.w3.org/2000/svg">
<path d="M5.92223 16.3333C6.69297 16.3333 7.31778 15.7364 7.31778 15C7.31778 14.2636 6.69297 13.6667 5.92223 13.6667C5.15148 13.6667 4.52667 14.2636 4.52667 15C4.52667 15.7364 5.15148 16.3333 5.92223 16.3333Z" stroke="white" stroke-width="1.8" stroke-linecap="round" stroke-linejoin="round"/>
<path d="M14.2956 16.3333C15.0663 16.3333 15.6911 15.7364 15.6911 15C15.6911 14.2636 15.0663 13.6667 14.2956 13.6667C13.5248 13.6667 12.9 14.2636 12.9 15C12.9 15.7364 13.5248 16.3333 14.2956 16.3333Z" stroke="white" stroke-width="1.8" stroke-linecap="round" stroke-linejoin="round"/>
<path d="M4.2964 4.99999H16.3889L15.2166 10.5933C15.1528 10.9003 14.9781 11.176 14.7229 11.3722C14.4678 11.5684 14.1485 11.6727 13.8211 11.6667H6.44556C6.10482 11.6694 5.7748 11.553 5.51773 11.3393C5.26065 11.1256 5.09429 10.8295 5.05 10.5067L3.98938 2.82666C3.9454 2.50615 3.78104 2.21182 3.5269 1.99844C3.27275 1.78505 2.94612 1.66715 2.60778 1.66666H1.03778" stroke="white" stroke-width="1.8" stroke-linecap="round" stroke-linejoin="round"/>
</svg>
