<svg width="24" height="24" viewBox="0 0 24 24" fill="none" xmlns="http://www.w3.org/2000/svg">
<g clip-path="url(#clip0_126545_1471)">
<path d="M20 4.00001H4.00001C3.73765 3.99934 3.47776 4.05069 3.23537 4.15109C2.99297 4.25149 2.77289 4.39894 2.58784 4.58492C2.40278 4.7709 2.25644 4.99173 2.15725 5.23462C2.05807 5.47751 2.00803 5.73766 2.01001 6.00001L2.00001 18C1.99909 18.2629 2.05019 18.5234 2.15037 18.7665C2.25055 19.0095 2.39783 19.2304 2.58374 19.4163C2.76964 19.6022 2.99048 19.7495 3.23355 19.8497C3.47662 19.9498 3.73711 20.0009 4.00001 20H20C20.2629 20.0009 20.5234 19.9498 20.7665 19.8497C21.0095 19.7495 21.2304 19.6022 21.4163 19.4163C21.6022 19.2304 21.7495 19.0095 21.8497 18.7665C21.9498 18.5234 22.0009 18.2629 22 18V6.00001C22.0009 5.73711 21.9498 5.47662 21.8497 5.23355C21.7495 4.99048 21.6022 4.76964 21.4163 4.58374C21.2304 4.39783 21.0095 4.25055 20.7665 4.15037C20.5234 4.05019 20.2629 3.99909 20 4.00001ZM20 18H4.00001V12H20V18ZM20 8.00001H4.00001V6.00001H20V8.00001Z" fill="black"/>
</g>
<defs>
<clipPath id="clip0_126545_1471">
<rect width="24" height="24" fill="white"/>
</clipPath>
</defs>
</svg>
