<svg width="40" height="40" viewBox="0 0 40 40" fill="none" xmlns="http://www.w3.org/2000/svg">
<path d="M27.8128 13.525C27.2861 14.1083 26.6128 14.54 25.8628 14.775C25.7591 14.8003 25.6507 14.7987 25.5479 14.7702C25.445 14.7418 25.3512 14.6875 25.2753 14.6125C24.789 14.1082 24.4816 13.4583 24.4003 12.7625C23.3382 12.7091 22.2907 13.0273 21.4378 13.6625C21.3574 13.6995 21.27 13.7187 21.1815 13.7187C21.0931 13.7187 21.0056 13.6995 20.9253 13.6625C19.9312 15.5812 19.2437 17.6436 18.8878 19.775C17.5003 27.225 16.7753 30.6125 8.33778 33.75C8.22521 33.7896 8.12702 33.862 8.05577 33.9577C7.98451 34.0535 7.94343 34.1683 7.93778 34.2875C7.92771 34.4051 7.95185 34.5232 8.00729 34.6274C8.06273 34.7316 8.14711 34.8176 8.25028 34.875C9.95003 35.8524 11.877 36.3654 13.8378 36.3625C18.7378 36.3625 23.7128 33.175 26.9128 27.5125C29.0874 23.9261 30.4129 19.8899 30.7878 15.7125C29.9872 14.7539 28.9665 14.0034 27.8128 13.525Z" fill="#D50000"/>
<path d="M29.0253 10.675C28.8837 10.9419 28.7206 11.1969 28.5378 11.4375L28.4378 11.55L28.2628 11.6625C28.0375 11.8273 27.7669 11.919 27.4878 11.925C27.3842 11.94 27.2789 11.94 27.1753 11.925C26.9707 11.8639 26.7851 11.7514 26.6363 11.5982C26.4875 11.445 26.3805 11.2563 26.3253 11.05C26.2993 10.9595 26.2937 10.8644 26.3088 10.7714C26.3239 10.6785 26.3594 10.5901 26.4128 10.5125C26.5072 10.3571 26.5629 10.1814 26.5753 9.99999C25.3253 9.64999 22.5503 9.31249 20.5628 12.7625C20.4914 12.8832 20.4636 13.0249 20.4841 13.1637C20.5046 13.3024 20.5721 13.43 20.6753 13.525C20.7458 13.5885 20.8322 13.6317 20.9253 13.65C21.0057 13.687 21.0931 13.7062 21.1816 13.7062C21.27 13.7062 21.3575 13.687 21.4378 13.65C22.2907 13.0148 23.3382 12.6966 24.4003 12.75C24.4816 13.4458 24.789 14.0957 25.2753 14.6C25.3512 14.675 25.4451 14.7293 25.5479 14.7577C25.6508 14.7862 25.7592 14.7878 25.8628 14.7625C26.6128 14.5275 27.2861 14.0958 27.8128 13.5125C28.9718 14.0051 29.993 14.7732 30.7878 15.75C30.8494 15.8103 30.9039 15.8774 30.9503 15.95C31.0114 16.0194 31.0863 16.0753 31.1703 16.1141C31.2542 16.1528 31.3454 16.1736 31.4378 16.175C31.5038 16.1881 31.5718 16.1881 31.6378 16.175C31.76 16.1357 31.8667 16.0591 31.9429 15.9559C32.0192 15.8528 32.0611 15.7283 32.0628 15.6C32.1762 14.5582 31.9391 13.5083 31.389 12.6164C30.8389 11.7245 30.0071 11.0413 29.0253 10.675Z" fill="#00C853"/>
<path d="M30.0749 4.36249C30.0446 4.20687 29.9573 4.06813 29.8302 3.97337C29.7031 3.87861 29.5452 3.83462 29.3874 3.84999L26.7624 4.18749C26.6743 4.20025 26.5899 4.23131 26.5145 4.27867C26.4392 4.32603 26.3746 4.38865 26.3249 4.46249C26.2719 4.54029 26.2376 4.62926 26.2246 4.72248C26.2116 4.81569 26.2203 4.91065 26.2499 4.99999C26.6768 6.63057 26.7871 8.32787 26.5749 9.99999C26.5445 10.1477 26.485 10.288 26.3999 10.4125C26.3465 10.4901 26.311 10.5785 26.2959 10.6714C26.2807 10.7644 26.2864 10.8595 26.3124 10.95C26.3675 11.1563 26.4746 11.345 26.6234 11.4982C26.7722 11.6514 26.9578 11.7639 27.1624 11.825C27.266 11.84 27.3713 11.84 27.4749 11.825C27.754 11.819 28.0246 11.7273 28.2499 11.5625L28.4249 11.45L28.5249 11.3375C28.7077 11.0969 28.8707 10.8419 29.0124 10.575C30.0177 8.66965 30.3898 6.49361 30.0749 4.36249Z" fill="#795548"/>
</svg>
