<svg width="30" height="30" viewBox="0 0 30 30" fill="none" xmlns="http://www.w3.org/2000/svg">
<g clip-path="url(#clip0_126597_2194)">
<path fill-rule="evenodd" clip-rule="evenodd" d="M29.9033 18.067L27.3639 17.3152C27.3762 17.0805 27.3939 16.8493 27.3939 16.6164C27.3939 10.387 23.1251 4.9817 17.2433 3.76758L16.7827 6.16934C21.5633 7.15934 25.0327 11.5499 25.0327 16.6164V16.627L22.7351 15.9476C22.2657 16.2193 22.0962 16.8388 22.3592 17.3258L24.4451 21.2205C24.7098 21.7076 25.3027 21.8823 25.7757 21.614L29.5292 19.4452C29.9986 19.1717 30.1662 18.5576 29.9033 18.067Z" fill="#2C2C2C"/>
<path fill-rule="evenodd" clip-rule="evenodd" d="M4.30258 16.1047C4.30258 11.9523 6.64258 8.24467 10.1261 6.50467L11.2061 9.43055C11.7373 9.67408 12.3602 9.42878 12.5967 8.87643L14.4867 4.48231C14.7196 3.92996 14.4832 3.28408 13.9502 3.03878L9.71493 1.07996C9.18199 0.831137 8.56258 1.08173 8.32435 1.63231L9.27905 4.21761C4.90258 6.3229 1.94141 10.9323 1.94141 16.1064C1.94141 17.5605 2.17964 19.0111 2.65435 20.4176L4.88141 19.6111C4.4967 18.4623 4.30258 17.2835 4.30258 16.1047Z" fill="#2C2C2C"/>
<path fill-rule="evenodd" clip-rule="evenodd" d="M15.3759 26.6594C13.53 26.6594 11.7318 26.1952 10.1612 25.2282L12.15 23.1317C12.1447 22.5264 11.6718 22.0764 11.0859 22.0817H6.45179C5.86591 22.0852 5.40002 22.5776 5.40532 23.1847L5.43708 27.9988C5.44238 28.6041 5.91532 29.0894 6.50297 29.0823L8.47238 27.007C10.5141 28.3958 12.9071 29.107 15.3759 29.107C18.9283 29.107 22.3394 27.5276 24.7377 24.7764L22.9871 23.1335C21.0353 25.3747 18.2612 26.6594 15.3759 26.6594Z" fill="#2C2C2C"/>
</g>
<defs>
<clipPath id="clip0_126597_2194">
<rect width="30" height="30" fill="white"/>
</clipPath>
</defs>
</svg>
