<svg width="30" height="30" viewBox="0 0 30 30" fill="none" xmlns="http://www.w3.org/2000/svg">
<path fill-rule="evenodd" clip-rule="evenodd" d="M15.0001 6.5625C11.5323 6.5625 8.49624 8.63901 6.41001 10.5604C5.35015 11.5365 4.49532 12.5097 3.90552 13.2382C3.61005 13.6031 3.3796 13.9085 3.2217 14.1246C3.14271 14.2327 3.08177 14.3186 3.03984 14.3786C3.01886 14.4086 3.00262 14.4321 2.99125 14.4487L2.97784 14.4684L2.97389 14.4742L2.63184 15.0165L2.97261 15.5239L2.97389 15.5257L2.97784 15.5316L2.99125 15.5512C3.00262 15.5679 3.01886 15.5914 3.03984 15.6214C3.08177 15.6814 3.14271 15.7672 3.2217 15.8754C3.3796 16.0915 3.61005 16.3969 3.90552 16.7617C4.49532 17.4902 5.35015 18.4635 6.41001 19.4396C8.49624 21.361 11.5323 23.4375 15.0001 23.4375C18.4679 23.4375 21.5039 21.361 23.5901 19.4396C24.65 18.4635 25.5049 17.4902 26.0946 16.7617C26.3901 16.3969 26.6205 16.0915 26.7785 15.8754C26.8574 15.7672 26.9184 15.6814 26.9602 15.6214C26.9812 15.5914 26.9975 15.5679 27.0089 15.5512L27.0222 15.5316L27.0262 15.5257L27.028 15.5232L27.3794 15L27.0275 14.4761L27.0262 14.4742L27.0222 14.4684L27.0089 14.4487C26.9975 14.4321 26.9812 14.4086 26.9602 14.3786C26.9184 14.3186 26.8574 14.2327 26.7785 14.1246C26.6205 13.9085 26.3901 13.6031 26.0946 13.2382C25.5049 12.5097 24.65 11.5365 23.5901 10.5604C21.5039 8.63901 18.4679 6.5625 15.0001 6.5625ZM5.36277 15.582C5.18355 15.3606 5.03097 15.1639 4.90719 15C5.03097 14.8361 5.18355 14.6394 5.36277 14.418C5.91155 13.7402 6.70424 12.8385 7.68024 11.9396C9.6657 10.111 12.2546 8.4375 15.0001 8.4375C17.7455 8.4375 20.3345 10.111 22.3199 11.9396C23.2959 12.8385 24.0886 13.7402 24.6374 14.418C24.8166 14.6394 24.9691 14.8361 25.093 15C24.9691 15.1639 24.8166 15.3606 24.6374 15.582C24.0886 16.2597 23.2959 17.1615 22.3199 18.0604C20.3345 19.889 17.7455 21.5625 15.0001 21.5625C12.2546 21.5625 9.6657 19.889 7.68024 18.0604C6.70424 17.1615 5.91155 16.2597 5.36277 15.582ZM17.8125 15C17.8125 16.5532 16.5534 17.8125 15 17.8125C13.4467 17.8125 12.1876 16.5532 12.1876 15C12.1876 13.4467 13.4467 12.1875 15 12.1875C16.5534 12.1875 17.8125 13.4467 17.8125 15ZM19.6875 15C19.6875 17.5889 17.5889 19.6875 15 19.6875C12.4112 19.6875 10.3126 17.5889 10.3126 15C10.3126 12.4112 12.4112 10.3125 15 10.3125C17.5889 10.3125 19.6875 12.4112 19.6875 15Z" fill="black"/>
</svg>
