<svg width="30" height="30" viewBox="0 0 30 30" fill="none" xmlns="http://www.w3.org/2000/svg">
<path d="M19.6627 14.6369L19.3092 14.9904L19.6627 15.344L27.632 23.3133C28.9225 24.6038 28.9498 26.6013 27.7755 27.7756C26.6013 28.9498 24.6038 28.9226 23.3133 27.6321L15.3439 19.6628L14.9904 19.3092L14.6368 19.6628L7.098 27.2016C5.92373 28.3759 3.92623 28.3486 2.63572 27.0581C1.34521 25.7676 1.31795 23.7701 2.49222 22.5958L10.0311 15.057L10.3846 14.7034L10.0311 14.3499L2.06173 6.38055C0.771215 5.09003 0.743962 3.09254 1.91823 1.91827C3.0925 0.744001 5.09 0.771255 6.38051 2.06177L14.3498 10.0311L14.7034 10.3846L15.0569 10.0311L22.5958 2.49226C23.77 1.31799 25.7675 1.34525 27.058 2.63576C28.3486 3.92627 28.3758 5.92377 27.2015 7.09804L19.6627 14.6369Z" fill="white" stroke="black"/>
</svg>
